<?xml version="1.0" encoding="utf-8"?>
<!-- Generator: Adobe Illustrator 17.0.0, SVG Export Plug-In . SVG Version: 6.00 Build 0)  -->
<!DOCTYPE svg PUBLIC "-//W3C//DTD SVG 1.1//EN" "http://www.w3.org/Graphics/SVG/1.1/DTD/svg11.dtd">
<svg version="1.1" id="Layer_1" xmlns="http://www.w3.org/2000/svg" xmlns:xlink="http://www.w3.org/1999/xlink" x="0px" y="0px"
	 width="40px" height="40px" viewBox="0 0 40 40" style="enable-background:new 0 0 40 40;" xml:space="preserve">
<g>
	<path style="fill:#9D9D9D;" d="M20,2c9.9,0,18,8.1,18,18c0,9.9-8.1,18-18,18S2,29.9,2,20C2,10.1,10.1,2,20,2 M20,0C9,0,0,9,0,20
		c0,11,9,20,20,20s20-9,20-20C40,9,31,0,20,0L20,0z"/>
</g>
<path style="fill:#9D9D9D;" d="M26,14H14c-0.8,0-1.5,0.7-1.5,1.5l0,9c0,0.8,0.7,1.5,1.5,1.5h12c0.8,0,1.5-0.7,1.5-1.5v-9
	C27.5,14.7,26.8,14,26,14z M26,17l-6,3.8L14,17v-1.5l6,3.7l6-3.7V17z"/>
</svg>
