<?xml version="1.0" encoding="utf-8"?>
<!-- Generator: Adobe Illustrator 17.0.0, SVG Export Plug-In . SVG Version: 6.00 Build 0)  -->
<!DOCTYPE svg PUBLIC "-//W3C//DTD SVG 1.1//EN" "http://www.w3.org/Graphics/SVG/1.1/DTD/svg11.dtd">
<svg version="1.1" id="Layer_1" xmlns="http://www.w3.org/2000/svg" xmlns:xlink="http://www.w3.org/1999/xlink" x="0px" y="0px"
	 width="40px" height="40px" viewBox="0 0 40 40" style="enable-background:new 0 0 40 40;" xml:space="preserve">
<g>
	<g>
		<path style="fill:#FFFFFF;" d="M20,2c9.9,0,18,8.1,18,18s-8.1,18-18,18S2,29.9,2,20S10.1,2,20,2 M20,0C9,0,0,9,0,20
			c0,11,9,20,20,20s20-9,20-20C40,9,31,0,20,0L20,0z"/>
	</g>
</g>
<path id="Icon_Facebook_10_" style="fill:#FFFFFF;" d="M21.3,17.7v-1.5c0-0.6,0.1-1,1.2-1h1.3v-2.5h-2c-2.5,0-3.5,1.6-3.5,3.5v1.5
	h-2v2.5h2v7.5h3v-7.5h2.2l0.3-2.5H21.3z"/>
</svg>
