<?xml version="1.0" encoding="utf-8"?>
<!-- Generator: Adobe Illustrator 17.0.0, SVG Export Plug-In . SVG Version: 6.00 Build 0)  -->
<!DOCTYPE svg PUBLIC "-//W3C//DTD SVG 1.1//EN" "http://www.w3.org/Graphics/SVG/1.1/DTD/svg11.dtd">
<svg version="1.1" id="Layer_1" xmlns="http://www.w3.org/2000/svg" xmlns:xlink="http://www.w3.org/1999/xlink" x="0px" y="0px"
	 width="40px" height="40px" viewBox="0 0 40 40" style="enable-background:new 0 0 40 40;" xml:space="preserve">
<g>
	<path style="fill:#9D9D9D;" d="M20,2c9.9,0,18,8.1,18,18c0,9.9-8.1,18-18,18S2,29.9,2,20C2,10.1,10.1,2,20,2 M20,0C9,0,0,9,0,20
		c0,11,9,20,20,20s20-9,20-20C40,9,31,0,20,0L20,0z"/>
</g>
<g>
	<g>
		<path style="fill:#9D9D9D;" d="M19.5,26.9c-0.1,0.3-0.1,0.5,0.1,0.5c0.4,0,2.1-1.2,2.8-1.9c0.4,0,0.7,0.3,0.6,0.7
			c-1.2,1.6-3.9,3.6-6.3,3.6c-0.8,0-1.4-0.8-1.4-1.2c0-0.3,0.1-0.7,0.4-1.3l3.1-7.5c0.1-0.2,0.1-0.4-0.1-0.4c-0.5,0-2.2,1.3-2.7,1.7
			c-0.4-0.1-0.6-0.5-0.5-0.7c1.6-2,4.5-3.5,6.1-3.5c0.7,0,1.4,0.7,1.4,1.3c0,0.3-0.2,0.9-0.4,1.3L19.5,26.9z M23,10.2
			c1,0,1.7,0.6,1.7,1.8c0,1.3-0.9,2.4-2.3,2.4c-1.1,0-1.8-0.8-1.8-1.7C20.6,11.4,21.6,10.2,23,10.2z"/>
	</g>
</g>
</svg>
