<?xml version="1.0" encoding="utf-8"?>
<!-- Generator: Adobe Illustrator 17.0.0, SVG Export Plug-In . SVG Version: 6.00 Build 0)  -->
<!DOCTYPE svg PUBLIC "-//W3C//DTD SVG 1.1//EN" "http://www.w3.org/Graphics/SVG/1.1/DTD/svg11.dtd">
<svg version="1.1" id="Layer_1" xmlns="http://www.w3.org/2000/svg" xmlns:xlink="http://www.w3.org/1999/xlink" x="0px" y="0px"
	 width="40px" height="40px" viewBox="0 0 40 40" style="enable-background:new 0 0 40 40;" xml:space="preserve">
<g>
	<g>
		<path style="fill:#FFFFFF;" d="M20,2c9.9,0,18,8.1,18,18s-8.1,18-18,18S2,29.9,2,20S10.1,2,20,2 M20,0C9,0,0,9,0,20
			c0,11,9,20,20,20s20-9,20-20C40,9,31,0,20,0L20,0z"/>
	</g>
</g>
<g id="Icon_LinkedIn_10_">
	<g>
		<path style="fill:#FFFFFF;" d="M26.4,12.7H13.6c-0.6,0-1.1,0.5-1.1,1.1v12.8c0,0.6,0.5,1.1,1.1,1.1h12.8c0.6,0,1.1-0.5,1.1-1.1
			V13.8C27.5,13.2,27,12.7,26.4,12.7z M17.1,25.4h-2.3v-6.9h2.3V25.4z M16,17.6c-0.8,0-1.4-0.6-1.4-1.4c0-0.8,0.6-1.4,1.4-1.4
			s1.4,0.6,1.4,1.4C17.4,16.9,16.7,17.6,16,17.6z M25.2,25.4h-2.3v-3.5c0-0.9-0.2-1.8-1.2-1.8c-0.9,0-1.2,0.9-1.2,1.8v3.5h-2.3v-6.9
			h2.3v0.8h0.1c0.3-0.6,1-1,1.9-1c2.1,0,2.6,1.4,2.6,3.1V25.4z"/>
	</g>
</g>
</svg>
