<?xml version="1.0" encoding="utf-8"?>
<!-- Generator: Adobe Illustrator 17.0.0, SVG Export Plug-In . SVG Version: 6.00 Build 0)  -->
<!DOCTYPE svg PUBLIC "-//W3C//DTD SVG 1.1//EN" "http://www.w3.org/Graphics/SVG/1.1/DTD/svg11.dtd">
<svg version="1.1" id="Layer_1" xmlns="http://www.w3.org/2000/svg" xmlns:xlink="http://www.w3.org/1999/xlink" x="0px" y="0px"
	 width="12.2px" height="16px" viewBox="0 0 12.2 16" style="enable-background:new 0 0 12.2 16;" xml:space="preserve">
<path style="fill:#C5C4C4;" d="M10.7,5.3H9.9V3.8C9.9,1.7,8.2,0,6.1,0S2.3,1.7,2.3,3.8v1.5H1.5C0.7,5.3,0,6,0,6.9v7.6
	C0,15.3,0.7,16,1.5,16h9.1c0.8,0,1.5-0.7,1.5-1.5V6.9C12.2,6,11.5,5.3,10.7,5.3z M6.1,12.2c-0.8,0-1.5-0.7-1.5-1.5
	c0-0.8,0.7-1.5,1.5-1.5s1.5,0.7,1.5,1.5C7.6,11.5,6.9,12.2,6.1,12.2z M8.5,5.3H3.7V3.8c0-1.3,1.1-2.4,2.4-2.4s2.4,1.1,2.4,2.4V5.3z"
	/>
</svg>
