<?xml version="1.0" encoding="utf-8"?>
<!-- Generator: Adobe Illustrator 17.0.0, SVG Export Plug-In . SVG Version: 6.00 Build 0)  -->
<!DOCTYPE svg PUBLIC "-//W3C//DTD SVG 1.1//EN" "http://www.w3.org/Graphics/SVG/1.1/DTD/svg11.dtd">
<svg version="1.1" id="Layer_1" xmlns="http://www.w3.org/2000/svg" xmlns:xlink="http://www.w3.org/1999/xlink" x="0px" y="0px"
	 width="9.5px" height="16px" viewBox="0 0 9.5 16" style="enable-background:new 0 0 9.5 16;" xml:space="preserve">
<path style="fill:#C5C4C4;" d="M7.6,0H1.8C0.8,0,0,0.8,0,1.8v12.4c0,1,0.8,1.8,1.8,1.8h5.8c1,0,1.8-0.8,1.8-1.8V1.8
	C9.5,0.8,8.6,0,7.6,0z M4.7,15.3c-0.6,0-1.1-0.5-1.1-1.1c0-0.6,0.5-1.1,1.1-1.1s1.1,0.5,1.1,1.1C5.8,14.8,5.3,15.3,4.7,15.3z
	 M8,12.4H1.5V2.2H8V12.4z"/>
</svg>
