<?xml version="1.0" encoding="utf-8"?>
<!-- Generator: Adobe Illustrator 17.0.0, SVG Export Plug-In . SVG Version: 6.00 Build 0)  -->
<!DOCTYPE svg PUBLIC "-//W3C//DTD SVG 1.1//EN" "http://www.w3.org/Graphics/SVG/1.1/DTD/svg11.dtd">
<svg version="1.1" id="Layer_1" xmlns="http://www.w3.org/2000/svg" xmlns:xlink="http://www.w3.org/1999/xlink" x="0px" y="0px"
	 width="40px" height="40px" viewBox="0 0 40 40" style="enable-background:new 0 0 40 40;" xml:space="preserve">
<g>
	<path style="fill:#9D9D9D;" d="M20,2c9.9,0,18,8.1,18,18s-8.1,18-18,18S2,29.9,2,20S10.1,2,20,2 M20,0C9,0,0,9,0,20
		c0,11,9,20,20,20s20-9,20-20C40,9,31,0,20,0L20,0z"/>
</g>
<path style="fill:#9D9D9D;" d="M15.5,19c1.2,2.4,3.1,4.3,5.5,5.5l1.8-1.8c0.2-0.2,0.6-0.3,0.8-0.2c0.9,0.3,1.9,0.5,3,0.5
	c0.5,0,0.8,0.4,0.8,0.8v2.9c0,0.5-0.4,0.8-0.8,0.8c-7.8,0-14.2-6.3-14.2-14.2c0-0.5,0.4-0.8,0.8-0.8h2.9c0.5,0,0.8,0.4,0.8,0.8
	c0,1,0.2,2,0.5,3c0.1,0.3,0,0.6-0.2,0.8L15.5,19z"/>
</svg>
