<?xml version="1.0" encoding="utf-8"?>
<!-- Generator: Adobe Illustrator 17.0.0, SVG Export Plug-In . SVG Version: 6.00 Build 0)  -->
<!DOCTYPE svg PUBLIC "-//W3C//DTD SVG 1.1//EN" "http://www.w3.org/Graphics/SVG/1.1/DTD/svg11.dtd">
<svg version="1.1" id="Layer_1" xmlns="http://www.w3.org/2000/svg" xmlns:xlink="http://www.w3.org/1999/xlink" x="0px" y="0px"
	 width="40px" height="40px" viewBox="0 0 40 40" style="enable-background:new 0 0 40 40;" xml:space="preserve">
<g>
	<g>
		<path style="fill:#FFFFFF;" d="M20,2c9.9,0,18,8.1,18,18s-8.1,18-18,18S2,29.9,2,20S10.1,2,20,2 M20,0C9,0,0,9,0,20
			c0,11,9,20,20,20s20-9,20-20C40,9,31,0,20,0L20,0z"/>
	</g>
</g>
<path id="Icon_Twitter_10_" style="fill:#FFFFFF;" d="M27.5,15.5c-0.6,0.3-1.1,0.4-1.8,0.5c0.6-0.4,1.1-1,1.4-1.7
	c-0.6,0.4-1.3,0.6-2,0.8c-0.6-0.6-1.4-1-2.3-1c-1.7,0-3.1,1.4-3.1,3.1c0,0.3,0,0.5,0.1,0.7c-2.6-0.1-4.9-1.4-6.4-3.2
	c-0.3,0.5-0.4,1-0.4,1.5c0,1.1,0.6,2.1,1.4,2.6c-0.5,0-1-0.2-1.4-0.4c0,0,0,0,0,0.1c0,1.5,1.1,2.8,2.5,3c-0.3,0.1-0.5,0.1-0.8,0.1
	c-0.2,0-0.4,0-0.6-0.1c0.4,1.2,1.5,2.2,2.9,2.2C16,24.5,14.7,25,13.2,25c-0.3,0-0.5,0-0.7-0.1c1.4,0.9,3,1.4,4.8,1.4
	c5.7,0,8.8-4.7,8.8-8.8c0-0.2,0-0.3,0-0.4C26.6,16.6,27.1,16.1,27.5,15.5z"/>
</svg>
