<?xml version="1.0" encoding="utf-8"?>
<!-- Generator: Adobe Illustrator 17.0.0, SVG Export Plug-In . SVG Version: 6.00 Build 0)  -->
<!DOCTYPE svg PUBLIC "-//W3C//DTD SVG 1.1//EN" "http://www.w3.org/Graphics/SVG/1.1/DTD/svg11.dtd">
<svg version="1.1" id="Layer_1" xmlns="http://www.w3.org/2000/svg" xmlns:xlink="http://www.w3.org/1999/xlink" x="0px" y="0px"
	 width="40px" height="40px" viewBox="0 0 40 40" style="enable-background:new 0 0 40 40;" xml:space="preserve">
<g>
	<g>
		<path style="fill:#FFFFFF;" d="M20,2c9.9,0,18,8.1,18,18s-8.1,18-18,18S2,29.9,2,20S10.1,2,20,2 M20,0C9,0,0,9,0,20
			c0,11,9,20,20,20s20-9,20-20C40,9,31,0,20,0L20,0z"/>
	</g>
</g>
<path id="Icon_YouTube_10_" style="fill:#FFFFFF;" d="M27.6,17.1c0,0-0.2-1.1-0.6-1.5c-0.6-0.6-1.2-0.6-1.5-0.7
	c-2.2-0.2-5.4-0.2-5.4-0.2l0,0c0,0-3.2,0-5.4,0.2c-0.3,0.1-1,0.1-1.5,0.7c-0.5,0.5-0.6,1.5-0.6,1.5s-0.2,1.2-0.2,2.5v1.1
	c0,1.2,0.2,2.5,0.2,2.5s0.2,1.1,0.6,1.5c0.6,0.6,1.3,0.6,1.7,0.7c1.2,0.1,5.2,0.2,5.2,0.2s3.2,0,5.4-0.2c0.3-0.1,1-0.1,1.5-0.7
	c0.5-0.5,0.6-1.5,0.6-1.5s0.2-1.2,0.2-2.5v-1.1C27.7,18.4,27.6,17.1,27.6,17.1z M18.4,22.2v-4.3l4.2,2.2L18.4,22.2z"/>
</svg>
